<svg data-v-0dd9719b="" version="1.0" xmlns="http://www.w3.org/2000/svg" xmlns:xlink="http://www.w3.org/1999/xlink" width="100%" height="100%" viewBox="0 0 340.000000 250.000000" preserveAspectRatio="xMidYMid meet" color-interpolation-filters="sRGB" style="margin: auto;"> <rect data-v-0dd9719b="" x="0" y="0" width="100%" height="100%" fill="#1cb0f6" fill-opacity="1" class="background"></rect> <rect data-v-0dd9719b="" x="0" y="0" width="100%" height="100%" fill="url(#watermark)" fill-opacity="1" class="watermarklayer"></rect> <g data-v-0dd9719b="" fill="#feffff" class="basesvg" transform="translate(149.80999946594238,100.44999694824219)"><g data-gra="path-name" fill-rule="" class="tp-name"><g transform="scale(1)"><g><path d="M36.78-2.6L36.78-2.6Q36.78-2.57 36.75-2.48L36.75-2.48Q36.4 0 34.21 0L34.21 0Q33.45 0 32.88-0.38L32.88-0.38Q31.61-1.21 31.61-3.08L31.61-3.08Q31.61-3.62 34.59-29.14L34.59-29.14Q27.04-13.23 22.72-4.03L22.72-4.03Q21.8-2.06 21.68-1.84L21.68-1.84Q20.73-0.03 19.14 0L19.14 0Q18.82 0 18.54-0.06L18.54-0.06Q17.2-0.32 16.5-2.25L16.5-2.25 11.01-29.2Q9.17-14.66 7.27-2.6L7.27-2.6Q7.27-2.57 7.24-2.48L7.24-2.48Q6.89 0 4.7 0L4.7 0Q3.94 0 3.36-0.38L3.36-0.38Q2.09-1.21 2.09-3.08L2.09-3.08Q2.09-3.4 6.6-37.32L6.6-37.32Q7.78-46.08 7.87-46.78L7.87-46.78Q7.97-47.35 8.25-47.83L8.25-47.83Q9.05-49.1 10.57-49.1L10.57-49.1Q10.92-49.1 11.3-49L11.3-49Q12.66-48.62 12.85-47.58L12.85-47.58Q13.49-44.02 16.95-26.88L16.95-26.88Q19.42-14.47 20.12-10.85L20.12-10.85 37.29-47.26Q37.42-47.58 37.64-47.92L37.64-47.92Q38.56-49.1 39.93-49.1L39.93-49.1Q40.53-49.1 41.07-48.78L41.07-48.78Q42.34-48.08 42.47-46.62L42.47-46.62Q42.34-45.7 42.21-44.5L42.21-44.5Q37.55-7.27 36.78-2.6Z" transform="translate(-2.0899999141693115, 49.099998474121094)"></path></g> <!----> <!----> <!----> <!----> <!----> <!----> <!----></g></g> <!----></g><defs v-gra="od"></defs></svg>